HIERARCHY
ROOT Hips
{
	OFFSET 0.000000 0.000000 0.000000 
	CHANNELS 6 Xposition Yposition Zposition Yrotation Zrotation Xrotation 
	JOINT Lumbar
	{
		OFFSET 0.000000 0.000000 0.000000 
		CHANNELS 3 Zrotation Xrotation Yrotation
		JOINT Neck
		{
			OFFSET 0.000000 0.445665 0.000000 
			CHANNELS 3 Zrotation Xrotation Yrotation
			End Site
			{
				OFFSET 0.000000 0.227535 0.000000 
			}
		}
		JOINT RightShoulder
		{
			OFFSET 0.019635 0.377685 0.194865 
			CHANNELS 3 Zrotation Xrotation Yrotation
			JOINT RightElbow
			{
				OFFSET 0.000000 -0.243375 0.000000 
				CHANNELS 2 Zrotation Yrotation
				JOINT RightWrist
				{
					OFFSET 0.000000 -0.264825 0.000000 
					CHANNELS 2 Zrotation Xrotation
					End Site
					{
						OFFSET 0.006600 -0.176220 0.000990 
					}
				}
			}
		}
		JOINT LeftShoulder
		{
			OFFSET 0.019635 0.377685 -0.194865 
			CHANNELS 3 Zrotation Xrotation Yrotation
			JOINT LeftElbow
			{
				OFFSET 0.000000 -0.243375 0.000000 
				CHANNELS 2 Zrotation Yrotation
				JOINT LeftWrist
				{
					OFFSET 0.000000 -0.264825 0.000000 
					CHANNELS 2 Zrotation Xrotation
					End Site
					{
						OFFSET 0.006600 -0.176220 -0.000990 
					}
				}
			}
		}
	}
	JOINT RightHip
	{
		OFFSET 0.052140 -0.069960 0.075570 
		CHANNELS 3 Zrotation Xrotation Yrotation
		JOINT RightKnee
		{
			OFFSET 0.000000 -0.402270 0.000000 
			CHANNELS 1 Zrotation
			JOINT RightAnkle
			{
				OFFSET 0.000000 -0.404085 0.000000 
				CHANNELS 3 Zrotation Xrotation Yrotation
				End Site
				{
					OFFSET 0.204105 -0.089430 0.008415 
				}
			}
		}
	}
	JOINT LeftHip
	{
		OFFSET 0.052140 -0.069960 -0.075570 
		CHANNELS 3 Zrotation Xrotation Yrotation
		JOINT LeftKnee
		{
			OFFSET 0.000000 -0.402270 0.000000 
			CHANNELS 1 Zrotation
			JOINT LeftAnkle
			{
				OFFSET 0.000000 -0.404085 0.000000 
				CHANNELS 3 Zrotation Xrotation Yrotation
				End Site
				{
					OFFSET 0.204105 -0.089430 -0.008415 
				}
			}
		}
	}
}
MOTION
Frames: 22
Frame Time: 0.02
0.00017 0.00015 0.00013 -180.43671 -39.76658 -3.59204 45.90949 3.26508 -2.65475 -12.03873 -3.11341 -1.22883 49.99195 -107.27647 55.63071 7.02255 89.36917 11.4989 -1.15283 30.80039 105.70284 -55.63259 8.21034 -89.15955 8.70309 0.60296 45.61809 -6.30993 -8.22719 -21.87218 -6.96493 -2.10287 -3.30222 49.43357 12.22009 2.7341 -27.23446 -7.01699 1.60579 3.03097
-0.00031 0.00011 0.00011 -180.40679 -39.75508 -3.59013 45.92675 3.25793 -2.64562 -12.05251 -3.09979 -1.22976 50.12843 -107.26422 55.63105 7.00861 89.36506 11.52663 -1.15247 30.88889 105.70313 -55.63274 8.19754 -89.14951 8.71795 0.6025 45.55984 -6.31402 -8.27236 -21.87127 -6.9609 -2.108 -3.30225 49.39112 12.21236 2.68825 -27.23416 -7.01329 1.60719 3.03256
-0.00078 6e-05 8e-05 -180.37692 -39.74361 -3.58822 45.94395 3.2508 -2.63651 -12.06627 -3.0862 -1.23069 50.26456 -107.25195 55.63139 6.9947 89.36098 11.5543 -1.1521 30.97729 105.70337 -55.63288 8.18475 -89.13948 8.73279 0.602 45.50172 -6.31807 -8.31719 -21.87037 -6.95689 -2.11314 -3.30229 49.34877 12.20464 2.64256 -27.23386 -7.0096 1.60859 3.03413
-0.00126 2e-05 6e-05 -180.34709 -39.73214 -3.58631 45.96116 3.24367 -2.6274 -12.08001 -3.07262 -1.23162 50.40063 -107.23973 55.63173 6.9808 89.35688 11.58195 -1.15173 31.06554 105.70365 -55.63302 8.17198 -89.12947 8.74761 0.60154 45.44364 -6.32214 -8.36218 -21.86947 -6.95288 -2.11826 -3.30232 49.30644 12.19694 2.59685 -27.23357 -7.00592 1.60999 3.03571
-0.00174 -2e-05 3e-05 -180.31721 -39.72066 -3.58442 45.97841 3.23652 -2.61828 -12.09378 -3.059 -1.23255 50.53702 -107.22754 55.63207 6.96689 89.35277 11.60966 -1.15137 31.15383 105.704 -55.63317 8.15922 -89.11946 8.76243 0.60111 45.38544 -6.32626 -8.40763 -21.86857 -6.94885 -2.12335 -3.30233 49.26404 12.18923 2.551 -27.23327 -7.00222 1.6114 3.03729
-0.00222 -7e-05 1e-05 -180.28736 -39.70919 -3.58244 45.99553 3.22942 -2.6092 -12.10753 -3.04548 -1.23347 50.67261 -107.21513 55.63241 6.95298 89.34873 11.63724 -1.15098 31.24245 105.70403 -55.63331 8.14636 -89.10938 8.77733 0.60047 45.32751 -6.33017 -8.45116 -21.86767 -6.94488 -2.12858 -3.30244 49.22179 12.18149 2.50564 -27.23298 -6.99855 1.61277 3.03885
-0.00269 -0.00011 -2e-05 -180.2575 -39.6977 -3.58064 46.0129 3.22224 -2.60004 -12.12129 -3.03179 -1.23441 50.80963 -107.20317 55.63275 6.93908 89.34455 11.66505 -1.15066 31.3303 105.70469 -55.63345 8.1337 -89.09947 8.79206 0.60027 45.2691 -6.33449 -8.49844 -21.86676 -6.9408 -2.13353 -3.30236 49.17928 12.17382 2.45933 -27.23267 -6.99484 1.61422 3.04046
-0.00317 -0.00015 -4e-05 -180.22764 -39.68624 -3.57868 46.03002 3.21513 -2.59095 -12.13504 -3.01825 -1.23533 50.94542 -107.19078 55.63309 6.92516 89.34051 11.69265 -1.15027 31.41885 105.70477 -55.6336 8.12088 -89.08938 8.80694 0.59967 45.21114 -6.33845 -8.54238 -21.86587 -6.93682 -2.13873 -3.30245 49.13702 12.16608 2.41388 -27.23239 -6.99116 1.61559 3.04202
-0.00364 -0.0002 -6e-05 -180.19777 -39.67479 -3.57652 46.0469 3.20812 -2.58196 -12.1488 -3.00489 -1.23623 51.0794 -107.1779 55.63342 6.91124 89.3366 11.71999 -1.14979 31.50837 105.70411 -55.63373 8.10778 -89.07916 8.82205 0.59855 45.15367 -6.34187 -8.58173 -21.86499 -6.93294 -2.14428 -3.30275 49.09501 12.15827 2.36955 -27.23211 -6.98751 1.61689 3.04353
-0.00414 -0.00024 -0.0001 -180.16795 -39.66317 -3.57546 46.06535 3.20057 -2.57242 -12.16255 -2.9905 -1.23725 51.22287 -107.16798 55.63379 6.8974 89.3318 11.74884 -1.14982 31.59267 105.70763 -55.6339 8.09604 -89.06994 8.83597 0.60031 45.09318 -6.34812 -8.64595 -21.86398 -6.92844 -2.14797 -3.30186 49.05137 12.15094 2.319 -27.23173 -6.98367 1.61866 3.04535
-0.00459 -0.00028 -0.00011 -180.13802 -39.65198 -3.57212 46.08041 3.19415 -2.56403 -12.1763 -2.97825 -1.23801 51.3469 -107.15173 55.63408 6.88335 89.32897 11.77447 -1.14876 31.68773 105.70239 -55.634 8.08156 -89.05844 8.85232 0.59607 45.03918 -6.34858 -8.65873 -21.86329 -6.92525 -2.15549 -3.30345 49.01131 12.14256 2.28143 -27.23159 -6.98025 1.61942 3.04651
-0.00492 -0.0003 -3e-05 -180.10779 -39.64156 -3.56233 46.08674 3.19087 -2.5589 -12.19036 -2.97219 -1.23801 51.41244 -107.1186 55.63414 6.86897 89.33072 11.79143 -1.14477 31.81472 105.67242 -55.6339 8.0583 -89.04192 8.87592 0.57477 45.00238 -6.33132 -8.52034 -21.86313 -6.9258 -2.17444 -3.31238 48.98007 12.13155 2.2812 -27.2318 -6.97792 1.61729 3.04584
-0.0052 -0.00032 8e-05 -180.07745 -39.63165 -3.55029 46.08956 3.18874 -2.55488 -12.20439 -2.96821 -1.23775 51.4595 -107.07898 55.6341 6.85431 89.33457 11.80511 -1.13964 31.9521 105.63378 -55.63374 8.03247 -89.0229 8.90184 0.54756 44.97225 -6.30858 -8.33206 -21.86334 -6.92765 -2.19706 -3.32372 48.95265 12.11949 2.29385 -27.23229 -6.97602 1.61415 3.04451
-0.0055 -0.00034 0.00017 -180.04713 -39.62174 -3.5394 46.09362 3.18606 -2.55029 -12.21824 -2.96306 -1.23762 51.51825 -107.04203 55.6341 6.83965 89.33801 11.8202 -1.135 32.08306 105.5996 -55.63361 8.00864 -89.00416 8.92628 0.52347 44.93943 -6.28958 -8.17327 -21.86362 -6.92882 -2.2174 -3.33362 48.92413 12.1077 2.29927 -27.23282 -6.97394 1.61154 3.0435
-0.00582 -0.00036 0.00026 -180.01689 -39.61077 -3.52796 46.09919 3.18346 -2.54605 -12.23287 -2.95883 -1.23742 51.56268 -107.00638 55.63414 6.82559 89.33923 11.83567 -1.13056 32.22099 105.56326 -55.63346 7.98139 -88.98889 8.95249 0.49757 44.90506 -6.26536 -7.98598 -21.86293 -6.93037 -2.24035 -3.34498 48.89284 12.09663 2.30985 -27.23266 -6.9718 1.60865 3.04241
-0.00609 -0.00038 0.00036 -179.98654 -39.60222 -3.51718 46.10078 3.181 -2.54127 -12.24591 -2.95321 -1.23731 51.63305 -106.96633 55.63408 6.81012 89.34549 11.84952 -1.12534 32.34715 105.52931 -55.63334 7.96054 -88.96594 8.97562 0.47399 44.87565 -6.2506 -7.84577 -21.86429 -6.93143 -2.25873 -3.35387 48.86833 12.08403 2.31358 -27.23397 -6.96989 1.60606 3.04131
-0.00625 -0.0004 0.00047 -179.95505 -39.5994 -3.50831 46.09223 3.17834 -2.53521 -12.25432 -2.94317 -1.23754 51.77525 -106.91709 55.63378 6.79161 89.36589 11.8601 -1.11913 32.43581 105.50461 -55.63332 7.95909 -88.92133 8.98921 0.45879 44.85706 -6.26442 -7.85214 -21.87185 -6.93069 -2.2635 -3.3553 48.86067 12.06547 2.28775 -27.2396 -6.96845 1.60497 3.04059
-0.00638 -0.00043 0.00058 -179.9236 -39.59913 -3.50027 46.07978 3.17582 -2.5285 -12.26118 -2.9317 -1.23786 51.94482 -106.86347 55.6334 6.77156 89.39114 11.8691 -1.11202 32.51274 105.48255 -55.63333 7.96397 -88.86924 8.99972 0.44605 44.84347 -6.28779 -7.90702 -21.88135 -6.92942 -2.26355 -3.35419 48.85988 12.04572 2.25578 -27.24665 -6.96725 1.60415 3.03983
-0.00652 -0.00045 0.00068 -179.89273 -39.59819 -3.49217 46.06912 3.17344 -2.52175 -12.26894 -2.92095 -1.23815 52.10491 -106.81087 55.63308 6.75166 89.41369 11.87855 -1.10474 32.59662 105.45894 -55.63333 7.96524 -88.82128 9.01188 0.43184 44.82842 -6.30602 -7.9366 -21.88955 -6.92846 -2.26582 -3.3543 48.85654 12.02787 2.23179 -27.25286 -6.966 1.60293 3.03892
-0.00667 -0.00048 0.00079 -179.85941 -39.59517 -3.48272 46.05829 3.17027 -2.51637 -12.2759 -2.90995 -1.23841 52.25262 -106.76183 55.63268 6.73399 89.43845 11.88897 -1.09983 32.67393 105.4364 -55.63333 7.9695 -88.77024 9.02293 0.41887 44.81018 -6.32726 -7.97738 -21.8995 -6.92725 -2.26793 -3.35421 48.8509 12.00445 2.18719 -27.25988 -6.96451 1.60284 3.03868
-0.00679 -0.0005 0.0009 -179.83112 -39.59711 -3.47624 46.0469 3.16873 -2.50804 -12.28414 -2.89912 -1.23874 52.43192 -106.70479 55.63242 6.71142 89.4597 11.89709 -1.08985 32.76214 105.41249 -55.63334 7.96909 -88.72378 9.03569 0.404 44.79969 -6.34478 -8.00798 -21.90629 -6.92642 -2.26917 -3.35388 48.85169 11.99209 2.18284 -27.26556 -6.96356 1.60051 3.03709
-0.00682 -0.0005 0.00104 -179.81745 -39.61197 -3.47821 46.03527 3.17182 -2.49122 -12.29653 -2.88897 -1.23928 52.6997 -106.62368 55.6326 6.67484 89.47036 11.89881 -1.06544 32.88198 105.3834 -55.63334 7.95402 -88.69254 9.05251 0.38303 44.80939 -6.34772 -7.99029 -21.90376 -6.92678 -2.26935 -3.35361 48.86812 12.0131 2.30001 -27.2671 -6.9641 1.59149 3.03149
